# xmcd
#
# Track frame offsets: 
#        150
#        21332
#        38070
#        56660
#        72880
#        84407
#        95947
#        109595
#        125652
#        139470
#        156085
#        172397
#        184825
#        199662
#        214052
#        228000
#        244045
#        260920
#        272730
#        285535
#        301740
#        317197
#
# Disc length: 4387 seconds
#
# Revision: 2
# Processed by: cddbd v1.5.2PL0 Copyright (c) Steve Scherf et al.
# Submitted via: ExactAudioCopy v1.0b6
#
DISCID=4c112116
DTITLE=Teixeirinha - Dose Dupla - Vol. 1
DYEAR=1978
DGENRE=Other
TTITLE0=O Centro Oeste Brasileiro
TTITLE1=Canoeiro Dos Mares
TTITLE2=Menina Da Gaita
TTITLE3=Cidade Triste
TTITLE4=Show No Céu
TTITLE5=Nos Julguem Como Quizerem
TTITLE6=Parado No Tempo
TTITLE7=Rancho Do Capivari
TTITLE8=Meu Velho Pai
TTITLE9=Pedaços De Mim
TTITLE10=Caminhoneiro Amigo
TTITLE11=O Xoti É Lindo
TTITLE12=Inseparável Violão
TTITLE13=Lua Cheia
TTITLE14=Sou Todo Triste
TTITLE15=Só Agora Choramos
TTITLE16=Sua Crueldade
TTITLE17=Ciúmes
TTITLE18=Amor De Verdade
TTITLE19=Paulistinha Bonita
TTITLE20=Meu Pedaço De Chão
TTITLE21=Verde E Amarelo
EXTD=
EXTT0=
EXTT1=
EXTT2=
EXTT3=
EXTT4=
EXTT5=
EXTT6=
EXTT7=
EXTT8=
EXTT9=
EXTT10=
EXTT11=
EXTT12=
EXTT13=
EXTT14=
EXTT15=
EXTT16=
EXTT17=
EXTT18=
EXTT19=
EXTT20=
EXTT21=
PLAYORDER=
